<svg width="120" height="33" viewBox="0 0 120 33" fill="none" xmlns="http://www.w3.org/2000/svg">
<path d="M6.456 5.92V10.464H13.784V14.688H6.456V19.616H14.744V24H0.984V1.536H14.744V5.92H6.456ZM28.8565 24L25.4325 19.04L22.5525 24H16.6325L22.5205 14.88L16.4725 6.144H22.6165L26.0405 11.072L28.9205 6.144H34.8405L28.8565 15.136L35.0005 24H28.8565ZM42.581 8.672C43.1143 7.84 43.8503 7.168 44.789 6.656C45.7277 6.144 46.8263 5.888 48.085 5.888C49.557 5.888 50.8903 6.26133 52.085 7.008C53.2797 7.75467 54.2183 8.82133 54.901 10.208C55.605 11.5947 55.957 13.2053 55.957 15.04C55.957 16.8747 55.605 18.496 54.901 19.904C54.2183 21.2907 53.2797 22.368 52.085 23.136C50.8903 23.8827 49.557 24.256 48.085 24.256C46.8477 24.256 45.749 24 44.789 23.488C43.8503 22.976 43.1143 22.3147 42.581 21.504V32.512H37.109V6.144H42.581V8.672ZM50.389 15.04C50.389 13.6747 50.005 12.608 49.237 11.84C48.4903 11.0507 47.5623 10.656 46.453 10.656C45.365 10.656 44.437 11.0507 43.669 11.84C42.9223 12.6293 42.549 13.7067 42.549 15.072C42.549 16.4373 42.9223 17.5147 43.669 18.304C44.437 19.0933 45.365 19.488 46.453 19.488C47.541 19.488 48.469 19.0933 49.237 18.304C50.005 17.4933 50.389 16.4053 50.389 15.04ZM64.2998 0.32V24H58.8278V0.32H64.2998ZM76.3933 24.256C74.6439 24.256 73.0653 23.8827 71.6573 23.136C70.2706 22.3893 69.1719 21.3227 68.3613 19.936C67.5719 18.5493 67.1773 16.928 67.1773 15.072C67.1773 13.2373 67.5826 11.6267 68.3932 10.24C69.2039 8.832 70.3133 7.75467 71.7213 7.008C73.1293 6.26133 74.7079 5.888 76.4573 5.888C78.2066 5.888 79.7853 6.26133 81.1933 7.008C82.6013 7.75467 83.7106 8.832 84.5213 10.24C85.3319 11.6267 85.7373 13.2373 85.7373 15.072C85.7373 16.9067 85.3213 18.528 84.4893 19.936C83.6786 21.3227 82.5586 22.3893 81.1293 23.136C79.7213 23.8827 78.1426 24.256 76.3933 24.256ZM76.3933 19.52C77.4386 19.52 78.3239 19.136 79.0493 18.368C79.7959 17.6 80.1693 16.5013 80.1693 15.072C80.1693 13.6427 79.8066 12.544 79.0813 11.776C78.3773 11.008 77.5026 10.624 76.4573 10.624C75.3906 10.624 74.5053 11.008 73.8013 11.776C73.0973 12.5227 72.7453 13.6213 72.7453 15.072C72.7453 16.5013 73.0866 17.6 73.7693 18.368C74.4733 19.136 75.3479 19.52 76.3933 19.52ZM94.1123 9.12C94.7523 8.13867 95.5523 7.37067 96.5123 6.816C97.4723 6.24 98.5389 5.952 99.7123 5.952V11.744H98.2083C96.8429 11.744 95.8189 12.0427 95.1363 12.64C94.4536 13.216 94.1123 14.24 94.1123 15.712V24H88.6403V6.144H94.1123V9.12ZM119.16 14.784C119.16 15.296 119.128 15.8293 119.064 16.384H106.68C106.765 17.4933 107.117 18.3467 107.736 18.944C108.376 19.52 109.154 19.808 110.072 19.808C111.437 19.808 112.386 19.232 112.92 18.08H118.744C118.445 19.2533 117.901 20.3093 117.112 21.248C116.344 22.1867 115.373 22.9227 114.2 23.456C113.026 23.9893 111.714 24.256 110.264 24.256C108.514 24.256 106.957 23.8827 105.592 23.136C104.226 22.3893 103.16 21.3227 102.392 19.936C101.624 18.5493 101.24 16.928 101.24 15.072C101.24 13.216 101.613 11.5947 102.36 10.208C103.128 8.82133 104.194 7.75467 105.56 7.008C106.925 6.26133 108.493 5.888 110.264 5.888C111.992 5.888 113.528 6.25067 114.872 6.976C116.216 7.70133 117.261 8.736 118.008 10.08C118.776 11.424 119.16 12.992 119.16 14.784ZM113.56 13.344C113.56 12.4053 113.24 11.6587 112.6 11.104C111.96 10.5493 111.16 10.272 110.2 10.272C109.282 10.272 108.504 10.5387 107.864 11.072C107.245 11.6053 106.861 12.3627 106.712 13.344H113.56Z" fill="url(#paint0_linear_60_12580)"/>
<defs>
<linearGradient id="paint0_linear_60_12580" x1="-13.0826" y1="-4.53694" x2="79.2927" y2="59.5304" gradientUnits="userSpaceOnUse">
<stop stop-color="#16AEAA"/>
<stop offset="1" stop-color="#7367F0"/>
</linearGradient>
</defs>
</svg>
