<svg width="30" height="30" viewBox="0 0 30 30" fill="none" xmlns="http://www.w3.org/2000/svg">
<circle opacity="0.7" cx="15" cy="15" r="15" fill="white"/>
<path d="M20.6862 13.2853C20.9613 11.4465 19.5612 10.458 17.6468 9.79851L18.2678 7.30758L16.7516 6.92971L16.147 9.355C15.7484 9.25567 15.339 9.16196 14.9322 9.06912L15.5411 6.62784L14.0257 6.24997L13.4043 8.74003C13.0744 8.66489 12.7505 8.59062 12.4361 8.51246L12.4378 8.50468L10.3468 7.98256L9.94344 9.60201C9.94344 9.60201 11.0684 9.85983 11.0447 9.87581C11.6588 10.0291 11.7697 10.4355 11.7512 10.7577L11.0438 13.5954C11.0861 13.6062 11.141 13.6217 11.2014 13.6459C11.1509 13.6334 11.0969 13.6195 11.0412 13.6062L10.0497 17.5814C9.97452 17.7679 9.78408 18.0478 9.35482 17.9415C9.36993 17.9636 8.25273 17.6664 8.25273 17.6664L7.5 19.4021L9.47314 19.8939C9.84021 19.9859 10.1999 20.0822 10.5541 20.1729L9.92659 22.6924L11.4411 23.0702L12.0625 20.5776C12.4762 20.6899 12.8779 20.7935 13.2709 20.8911L12.6516 23.3721L14.1678 23.75L14.7953 21.2353C17.3808 21.7246 19.325 21.5272 20.1434 19.1887C20.8028 17.3058 20.1105 16.2197 18.7502 15.5115C19.7409 15.2831 20.4871 14.6314 20.6862 13.2853ZM17.2219 18.1432C16.7533 20.0261 13.5831 19.0082 12.5553 18.753L13.3879 15.4152C14.4157 15.6717 17.7116 16.1796 17.2219 18.1432ZM17.6909 13.2581C17.2633 14.9708 14.6247 14.1006 13.7688 13.8873L14.5237 10.86C15.3796 11.0733 18.1361 11.4715 17.6909 13.2581Z" fill="#F79E1B"/>
</svg>
