<svg width="30" height="30" viewBox="0 0 30 30" fill="none" xmlns="http://www.w3.org/2000/svg">
<circle opacity="0.7" cx="15" cy="15" r="15" fill="white"/>
<path fill-rule="evenodd" clip-rule="evenodd" d="M22.7215 11.0431C22.7821 11.0706 22.8311 11.1131 22.8542 11.1657C22.883 11.2307 22.8686 11.3133 22.8398 11.3833C22.808 11.4684 22.7619 11.5409 22.7099 11.6135C22.2513 12.2839 21.5763 12.9794 20.6849 13.6999C20.4887 17.9378 19.3868 19.4188 18.481 20.2469C18.106 20.5896 17.7627 20.8223 17.4656 20.9749C17.382 21.0199 17.2954 21.0574 17.2031 21.0874C17.131 21.11 17.056 21.1275 16.9752 21.125C16.9146 21.125 16.8541 21.1125 16.8079 21.0824C16.7589 21.0524 16.7271 21.0074 16.7098 20.9574C16.6867 20.8923 16.6925 20.8223 16.7069 20.7547C16.7242 20.6722 16.7502 20.5896 16.7791 20.5095C19.0637 13.9976 13.5598 13.4672 6.25 19.2562C6.25577 19.2349 6.26154 19.2143 6.26731 19.1936C6.27308 19.173 6.27885 19.1524 6.28462 19.1311C6.4 18.7483 6.63943 18.3556 7.08367 17.6676C12.5588 9.20932 18.331 6.33985 20.1368 10.918C20.1395 10.9245 20.1421 10.931 20.1446 10.9375C20.1617 10.9804 20.1781 11.0214 20.2032 11.0606C20.232 11.1031 20.2724 11.1456 20.3243 11.1707C20.3734 11.1957 20.4339 11.2057 20.4945 11.2057C20.5551 11.2057 20.6128 11.1957 20.6705 11.1857C21.2157 11.0931 21.7522 11.0331 22.2801 11.003C22.3609 10.998 22.4446 10.9955 22.5282 11.0005C22.5946 11.0055 22.6638 11.0156 22.7215 11.0431ZM16.2887 11.4183C16.2887 11.8236 16.6694 12.1513 17.1339 12.1513C17.6012 12.1513 17.9791 11.8236 17.9791 11.4183C17.9791 11.013 17.5983 10.6853 17.1339 10.6853C16.6666 10.6853 16.2887 11.013 16.2887 11.4183ZM6.57566 20.0141C6.64778 19.9216 6.73432 19.8465 6.82951 19.7765C13.7066 14.7405 17.0672 16.2591 15.1258 20.2593C15.0537 20.4094 14.9758 20.557 14.872 20.6946C14.7681 20.8297 14.6412 20.9573 14.4854 21.0473C14.3297 21.1374 14.145 21.1949 13.9604 21.2225C13.7729 21.25 13.5854 21.25 13.3979 21.25H13.3979H9.75457C9.33918 21.25 8.96417 21.2375 8.62089 21.2149C7.76703 21.1224 7.34587 21.0323 7.01413 20.8722C6.97951 20.8547 6.9449 20.8372 6.91317 20.8197C6.82374 20.7721 6.74009 20.7171 6.66508 20.6521C6.60451 20.602 6.5497 20.5445 6.5122 20.4794C6.4747 20.4144 6.4545 20.3418 6.46027 20.2693C6.46893 20.1792 6.51508 20.0917 6.57566 20.0141Z" fill="#7367F0"/>
</svg>
