<svg width="144" height="32" viewBox="0 0 144 32" fill="none" xmlns="http://www.w3.org/2000/svg">
<path fill-rule="evenodd" clip-rule="evenodd" d="M26.4285 6.01259C26.5257 6.0635 26.6044 6.14218 26.6414 6.23938C26.6877 6.35972 26.6646 6.51246 26.6183 6.64206C26.5674 6.79943 26.4933 6.93365 26.41 7.06788C25.6741 8.30831 24.591 9.59502 23.1608 10.928C22.8461 18.7686 21.078 21.5087 19.6247 23.0407C19.023 23.6748 18.4722 24.1052 17.9955 24.3876C17.8612 24.4709 17.7224 24.5403 17.5743 24.5959C17.4586 24.6375 17.3382 24.6699 17.2086 24.6653C17.1114 24.6653 17.0142 24.6421 16.9402 24.5866C16.8615 24.5311 16.8106 24.4478 16.7828 24.3552C16.7458 24.2348 16.755 24.1052 16.7782 23.9803C16.806 23.8275 16.8476 23.6748 16.8939 23.5267C20.5596 11.4788 11.7285 10.4976 0 21.2078C0.00925692 21.1685 0.0185139 21.1303 0.0277708 21.0921C0.0370277 21.0539 0.0462847 21.0158 0.0555416 20.9764C0.24068 20.2683 0.624843 19.5416 1.33763 18.2688C10.1225 2.61992 19.384 -2.68892 22.2814 5.78116C22.2857 5.79327 22.2898 5.8053 22.294 5.81725C22.3214 5.89666 22.3476 5.97257 22.3879 6.04499C22.4342 6.12367 22.499 6.20235 22.5823 6.24864C22.661 6.29492 22.7582 6.31344 22.8554 6.31344C22.9526 6.31344 23.0451 6.29492 23.1377 6.27641C24.0125 6.10516 24.8734 5.99407 25.7204 5.93853C25.85 5.92927 25.9842 5.92465 26.1184 5.9339C26.2249 5.94316 26.336 5.96167 26.4285 6.01259ZM16.1071 6.70686C16.1071 7.45667 16.718 8.063 17.4632 8.063C18.213 8.063 18.8193 7.45667 18.8193 6.70686C18.8193 5.95705 18.2084 5.35072 17.4632 5.35072C16.7134 5.35072 16.1071 5.95705 16.1071 6.70686ZM0.522521 22.6101C0.638233 22.4388 0.777087 22.3 0.929826 22.1704C11.9641 12.8533 17.3562 15.6628 14.2413 23.0637C14.1256 23.3414 14.0006 23.6145 13.834 23.869C13.6674 24.119 13.4637 24.355 13.2138 24.5217C12.9638 24.6883 12.6676 24.7947 12.3714 24.8456C12.0705 24.8966 11.7697 24.8966 11.4689 24.8966H11.4688H5.62309C4.95659 24.8966 4.35489 24.8734 3.8041 24.8318C2.43408 24.6605 1.75832 24.4939 1.22605 24.1977C1.17051 24.1653 1.11496 24.1329 1.06405 24.1005C0.920569 24.0125 0.786344 23.9107 0.666004 23.7904C0.568806 23.6978 0.480865 23.5913 0.420695 23.471C0.360525 23.3507 0.328126 23.2164 0.337383 23.0822C0.351268 22.9156 0.425324 22.7536 0.522521 22.6101Z" fill="#7367F0"/>
<path d="M30.8447 16.7949C30.8447 15.1856 31.1314 13.7798 31.7049 12.5774C32.2968 11.3751 33.1014 10.4502 34.1188 9.80275C35.1362 9.15533 36.2646 8.83162 37.5039 8.83162C38.5028 8.83162 39.3907 9.04434 40.1676 9.46979C40.963 9.87674 41.5827 10.4409 42.0266 11.1623V4.0592H47.4927V24.5917H42.0266V22.4274C41.6012 23.1489 41 23.7223 40.2231 24.1477C39.4462 24.5732 38.5305 24.7859 37.4762 24.7859C36.2368 24.7859 35.1085 24.4622 34.0911 23.8148C33.0922 23.1674 32.2968 22.2425 31.7049 21.0401C31.1314 19.8193 30.8447 18.4042 30.8447 16.7949ZM42.0544 16.7949C42.0544 15.796 41.7769 15.0099 41.222 14.4364C40.6855 13.863 40.0196 13.5763 39.2242 13.5763C38.4103 13.5763 37.7351 13.863 37.1987 14.4364C36.6623 14.9914 36.394 15.7775 36.394 16.7949C36.394 17.7938 36.6623 18.5892 37.1987 19.1811C37.7351 19.7545 38.4103 20.0412 39.2242 20.0412C40.0196 20.0412 40.6855 19.7545 41.222 19.1811C41.7769 18.6077 42.0544 17.8123 42.0544 16.7949Z" fill="#211B4B"/>
<path d="M48.5939 16.7949C48.5939 15.1856 48.8806 13.7798 49.454 12.5774C50.0459 11.3751 50.8414 10.4502 51.8402 9.80275C52.8576 9.15533 53.986 8.83162 55.2253 8.83162C56.2982 8.83162 57.2231 9.04434 58 9.46979C58.7769 9.89524 59.3781 10.4687 59.8035 11.1901V9.02584H65.2418V24.5917H59.8035V22.4274C59.3781 23.1489 58.7676 23.7223 57.9722 24.1477C57.1953 24.5732 56.2797 24.7859 55.2253 24.7859C53.986 24.7859 52.8576 24.4622 51.8402 23.8148C50.8414 23.1674 50.0459 22.2425 49.454 21.0401C48.8806 19.8193 48.5939 18.4042 48.5939 16.7949ZM59.8035 16.7949C59.8035 15.796 59.526 15.0099 58.9711 14.4364C58.4347 13.863 57.7687 13.5763 56.9733 13.5763C56.1594 13.5763 55.4843 13.863 54.9478 14.4364C54.4114 14.9914 54.1432 15.7775 54.1432 16.7949C54.1432 17.7938 54.4114 18.5892 54.9478 19.1811C55.4843 19.7545 56.1594 20.0412 56.9733 20.0412C57.7687 20.0412 58.4347 19.7545 58.9711 19.1811C59.526 18.6077 59.8035 17.8123 59.8035 16.7949Z" fill="#211B4B"/>
<path d="M74.6948 19.4586L77.6081 9.02584H83.4072L78.0521 24.5917H71.2819L65.9268 9.02584H71.7259L74.6948 19.4586Z" fill="#211B4B"/>
<path d="M99.0123 16.6284C99.0123 17.0539 98.9845 17.4793 98.929 17.9048H88.635C88.6905 18.7556 88.9217 19.3938 89.3287 19.8193C89.7541 20.2262 90.2906 20.4297 90.938 20.4297C91.8444 20.4297 92.4918 20.0227 92.8803 19.2088H98.6793C98.4388 20.2817 97.9671 21.2436 97.2642 22.0945C96.5798 22.9269 95.7104 23.5836 94.656 24.0645C93.6017 24.5454 92.4363 24.7859 91.16 24.7859C89.6247 24.7859 88.2558 24.4622 87.0535 23.8148C85.8696 23.1674 84.9355 22.2425 84.2511 21.0401C83.5852 19.8378 83.2522 18.4227 83.2522 16.7949C83.2522 15.1671 83.5852 13.7613 84.2511 12.5774C84.917 11.3751 85.8419 10.4502 87.0257 9.80275C88.2281 9.15533 89.6062 8.83162 91.16 8.83162C92.6953 8.83162 94.0549 9.14608 95.2387 9.775C96.4226 10.4039 97.3475 11.3103 98.0134 12.4942C98.6793 13.6595 99.0123 15.0376 99.0123 16.6284ZM93.4629 15.2688C93.4629 14.6029 93.241 14.085 92.797 13.715C92.3531 13.3266 91.7981 13.1323 91.1322 13.1323C90.4663 13.1323 89.9206 13.3173 89.4952 13.6873C89.0697 14.0387 88.7923 14.5659 88.6628 15.2688H93.4629Z" fill="#211B4B"/>
<path d="M105.566 4.0592V24.5917H100.128V4.0592H105.566Z" fill="#211B4B"/>
<path d="M122.426 16.6284C122.426 17.0539 122.398 17.4793 122.342 17.9048H112.048C112.104 18.7556 112.335 19.3938 112.742 19.8193C113.168 20.2262 113.704 20.4297 114.351 20.4297C115.258 20.4297 115.905 20.0227 116.294 19.2088H122.093C121.852 20.2817 121.38 21.2436 120.678 22.0945C119.993 22.9269 119.124 23.5836 118.069 24.0645C117.015 24.5454 115.85 24.7859 114.573 24.7859C113.038 24.7859 111.669 24.4622 110.467 23.8148C109.283 23.1674 108.349 22.2425 107.664 21.0401C106.999 19.8378 106.666 18.4227 106.666 16.7949C106.666 15.1671 106.999 13.7613 107.664 12.5774C108.33 11.3751 109.255 10.4502 110.439 9.80275C111.641 9.15533 113.02 8.83162 114.573 8.83162C116.109 8.83162 117.468 9.14608 118.652 9.775C119.836 10.4039 120.761 11.3103 121.427 12.4942C122.093 13.6595 122.426 15.0376 122.426 16.6284ZM116.876 15.2688C116.876 14.6029 116.654 14.085 116.21 13.715C115.766 13.3266 115.212 13.1323 114.546 13.1323C113.88 13.1323 113.334 13.3173 112.909 13.6873C112.483 14.0387 112.206 14.5659 112.076 15.2688H116.876Z" fill="#211B4B"/>
<path d="M140.3 9.02584L130.422 32H124.512L128.231 23.9258L121.849 9.02584H127.898L131.172 17.8493L134.335 9.02584H140.3Z" fill="#211B4B"/>
<path d="M141.438 24.4943C140.729 24.4943 140.121 24.2447 139.615 23.7455C139.116 23.2462 138.87 22.6419 138.876 21.9325C138.87 21.2362 139.116 20.6417 139.615 20.1491C140.121 19.6498 140.729 19.4002 141.438 19.4002C142.108 19.4002 142.699 19.6498 143.212 20.1491C143.73 20.6417 143.993 21.2362 144 21.9325C143.993 22.4054 143.868 22.8357 143.625 23.2232C143.389 23.6108 143.077 23.9195 142.689 24.1494C142.308 24.3794 141.891 24.4943 141.438 24.4943Z" fill="#7367F0"/>
</svg>
