<svg width="625" height="67" viewBox="0 0 625 67" fill="none" xmlns="http://www.w3.org/2000/svg">
<path d="M16.16 54H33.68V66H0.48V9.6H16.16V54ZM82.6569 43.04C82.6569 44.2667 82.5769 45.4933 82.4169 46.72H52.7369C52.8969 49.1733 53.5635 51.0133 54.7369 52.24C55.9635 53.4133 57.5102 54 59.3769 54C61.9902 54 63.8569 52.8267 64.9769 50.48H81.6969C81.0035 53.5733 79.6435 56.3467 77.6169 58.8C75.6435 61.2 73.1369 63.0933 70.0969 64.48C67.0569 65.8667 63.6969 66.56 60.0169 66.56C55.5902 66.56 51.6435 65.6267 48.1769 63.76C44.7635 61.8933 42.0702 59.2267 40.0969 55.76C38.1769 52.2933 37.2169 48.2133 37.2169 43.52C37.2169 38.8267 38.1769 34.7733 40.0969 31.36C42.0169 27.8933 44.6835 25.2267 48.0969 23.36C51.5635 21.4933 55.5369 20.56 60.0169 20.56C64.4435 20.56 68.3635 21.4667 71.7769 23.28C75.1902 25.0933 77.8569 27.7067 79.7769 31.12C81.6969 34.48 82.6569 38.4533 82.6569 43.04ZM66.6569 39.12C66.6569 37.2 66.0169 35.7067 64.7369 34.64C63.4569 33.52 61.8569 32.96 59.9369 32.96C58.0169 32.96 56.4435 33.4933 55.2169 34.56C53.9902 35.5733 53.1902 37.0933 52.8169 39.12H66.6569ZM110.594 51.2L118.994 21.12H135.714L120.274 66H100.754L85.3138 21.12H102.034L110.594 51.2ZM183.907 43.04C183.907 44.2667 183.827 45.4933 183.667 46.72H153.987C154.147 49.1733 154.814 51.0133 155.987 52.24C157.214 53.4133 158.76 54 160.627 54C163.24 54 165.107 52.8267 166.227 50.48H182.947C182.254 53.5733 180.894 56.3467 178.867 58.8C176.894 61.2 174.387 63.0933 171.347 64.48C168.307 65.8667 164.947 66.56 161.267 66.56C156.84 66.56 152.894 65.6267 149.427 63.76C146.014 61.8933 143.32 59.2267 141.347 55.76C139.427 52.2933 138.467 48.2133 138.467 43.52C138.467 38.8267 139.427 34.7733 141.347 31.36C143.267 27.8933 145.934 25.2267 149.347 23.36C152.814 21.4933 156.787 20.56 161.267 20.56C165.694 20.56 169.614 21.4667 173.027 23.28C176.44 25.0933 179.107 27.7067 181.027 31.12C182.947 34.48 183.907 38.4533 183.907 43.04ZM167.907 39.12C167.907 37.2 167.267 35.7067 165.987 34.64C164.707 33.52 163.107 32.96 161.187 32.96C159.267 32.96 157.694 33.4933 156.467 34.56C155.24 35.5733 154.44 37.0933 154.067 39.12H167.907ZM206.004 6.8V66H190.324V6.8H206.004ZM245.606 9.6V42.32C245.606 45.36 246.299 47.7067 247.686 49.36C249.126 51.0133 251.286 51.84 254.166 51.84C257.046 51.84 259.206 51.0133 260.646 49.36C262.139 47.6533 262.886 45.3067 262.886 42.32V9.6H278.566V42.32C278.566 47.4933 277.472 51.92 275.286 55.6C273.099 59.2267 270.112 61.9733 266.326 63.84C262.592 65.6533 258.432 66.56 253.846 66.56C249.259 66.56 245.152 65.6533 241.526 63.84C237.952 61.9733 235.126 59.2267 233.046 55.6C231.019 51.9733 230.006 47.5467 230.006 42.32V9.6H245.606ZM331.759 28.4C331.759 31.8133 330.959 34.9333 329.359 37.76C327.812 40.5333 325.439 42.7733 322.239 44.48C319.092 46.1333 315.225 46.96 310.639 46.96H302.879V66H287.199V9.6H310.639C315.172 9.6 319.012 10.4 322.159 12C325.359 13.6 327.759 15.8133 329.359 18.64C330.959 21.4667 331.759 24.72 331.759 28.4ZM309.119 34.48C313.545 34.48 315.759 32.4533 315.759 28.4C315.759 24.2933 313.545 22.24 309.119 22.24H302.879V34.48H309.119ZM389.051 56.8H369.051L366.011 66H349.531L370.091 9.6H388.171L408.651 66H392.091L389.051 56.8ZM385.131 44.8L379.051 26.56L373.051 44.8H385.131ZM429.441 29.04C431.201 26.48 433.335 24.4533 435.841 22.96C438.348 21.4667 441.041 20.72 443.921 20.72V37.44H439.521C436.108 37.44 433.575 38.1067 431.921 39.44C430.268 40.7733 429.441 43.0933 429.441 46.4V66H413.761V21.12H429.441V29.04ZM476.023 52.64V66H469.223C457.756 66 452.023 60.32 452.023 48.96V34.16H446.503V21.12H452.023V10.24H467.783V21.12H475.943V34.16H467.783V49.2C467.783 50.4267 468.049 51.3067 468.582 51.84C469.169 52.3733 470.129 52.64 471.463 52.64H476.023ZM491.134 16.96C488.361 16.96 486.121 16.2133 484.414 14.72C482.761 13.1733 481.934 11.2533 481.934 8.96C481.934 6.61333 482.761 4.66666 484.414 3.12C486.121 1.57333 488.361 0.799995 491.134 0.799995C493.854 0.799995 496.041 1.57333 497.694 3.12C499.401 4.66666 500.254 6.61333 500.254 8.96C500.254 11.2533 499.401 13.1733 497.694 14.72C496.041 16.2133 493.854 16.96 491.134 16.96ZM498.894 21.12V66H483.214V21.12H498.894ZM526.944 66.56C522.89 66.56 519.264 65.8933 516.064 64.56C512.917 63.1733 510.41 61.3067 508.544 58.96C506.73 56.56 505.717 53.8667 505.504 50.88H520.704C520.917 52.32 521.584 53.44 522.704 54.24C523.824 55.04 525.21 55.44 526.864 55.44C528.144 55.44 529.157 55.1733 529.904 54.64C530.65 54.1067 531.024 53.4133 531.024 52.56C531.024 51.44 530.41 50.6133 529.184 50.08C527.957 49.5467 525.93 48.96 523.104 48.32C519.904 47.68 517.237 46.96 515.104 46.16C512.97 45.36 511.104 44.0533 509.504 42.24C507.957 40.4267 507.184 37.9733 507.184 34.88C507.184 32.2133 507.904 29.8133 509.344 27.68C510.784 25.4933 512.89 23.76 515.664 22.48C518.49 21.2 521.877 20.56 525.824 20.56C531.69 20.56 536.304 22 539.664 24.88C543.024 27.76 544.97 31.5467 545.504 36.24H531.344C531.077 34.8 530.437 33.7067 529.424 32.96C528.464 32.16 527.157 31.76 525.504 31.76C524.224 31.76 523.237 32 522.544 32.48C521.904 32.96 521.584 33.6267 521.584 34.48C521.584 35.5467 522.197 36.3733 523.424 36.96C524.65 37.4933 526.624 38.0533 529.344 38.64C532.597 39.3333 535.29 40.1067 537.424 40.96C539.61 41.8133 541.504 43.2 543.104 45.12C544.757 46.9867 545.584 49.5467 545.584 52.8C545.584 55.4133 544.81 57.76 543.264 59.84C541.77 61.92 539.61 63.5733 536.784 64.8C534.01 65.9733 530.73 66.56 526.944 66.56ZM579.773 52.64V66H572.973C561.506 66 555.773 60.32 555.773 48.96V34.16H550.253V21.12H555.773V10.24H571.533V21.12H579.693V34.16H571.533V49.2C571.533 50.4267 571.799 51.3067 572.332 51.84C572.919 52.3733 573.879 52.64 575.213 52.64H579.773ZM606.084 66.56C602.031 66.56 598.404 65.8933 595.204 64.56C592.058 63.1733 589.551 61.3067 587.684 58.96C585.871 56.56 584.858 53.8667 584.644 50.88H599.844C600.058 52.32 600.724 53.44 601.844 54.24C602.964 55.04 604.351 55.44 606.004 55.44C607.284 55.44 608.298 55.1733 609.044 54.64C609.791 54.1067 610.164 53.4133 610.164 52.56C610.164 51.44 609.551 50.6133 608.324 50.08C607.098 49.5467 605.071 48.96 602.244 48.32C599.044 47.68 596.378 46.96 594.244 46.16C592.111 45.36 590.244 44.0533 588.644 42.24C587.098 40.4267 586.324 37.9733 586.324 34.88C586.324 32.2133 587.044 29.8133 588.484 27.68C589.924 25.4933 592.031 23.76 594.804 22.48C597.631 21.2 601.018 20.56 604.964 20.56C610.831 20.56 615.444 22 618.804 24.88C622.164 27.76 624.111 31.5467 624.644 36.24H610.484C610.218 34.8 609.578 33.7067 608.564 32.96C607.604 32.16 606.298 31.76 604.644 31.76C603.364 31.76 602.378 32 601.684 32.48C601.044 32.96 600.724 33.6267 600.724 34.48C600.724 35.5467 601.338 36.3733 602.564 36.96C603.791 37.4933 605.764 38.0533 608.484 38.64C611.738 39.3333 614.431 40.1067 616.564 40.96C618.751 41.8133 620.644 43.2 622.244 45.12C623.898 46.9867 624.724 49.5467 624.724 52.8C624.724 55.4133 623.951 57.76 622.404 59.84C620.911 61.92 618.751 63.5733 615.924 64.8C613.151 65.9733 609.871 66.56 606.084 66.56Z" fill="url(#paint0_linear_60_4101)"/>
<defs>
<linearGradient id="paint0_linear_60_4101" x1="-66.5921" y1="-5.84234" x2="164.61" y2="326.427" gradientUnits="userSpaceOnUse">
<stop stop-color="#16AEAA"/>
<stop offset="1" stop-color="#7367F0"/>
</linearGradient>
</defs>
</svg>
